<svg width="102" height="20" viewBox="0 0 102 20" fill="none" xmlns="http://www.w3.org/2000/svg">
<path d="M14.3063 7.87186L16.5484 14.8937L10.8672 14.1578L14.3063 7.87186Z" fill="#F79329"/>
<path d="M16.5484 15.0781C16.5405 15.0781 16.5327 15.0781 16.5249 15.0765L10.8421 14.3406C10.7812 14.3328 10.7296 14.2953 10.7015 14.2406C10.6734 14.1859 10.6749 14.1219 10.703 14.0687L14.1437 7.78279C14.1796 7.71872 14.2515 7.68122 14.3234 7.68747C14.3968 7.69372 14.4593 7.74372 14.4812 7.81404L16.7062 14.7859C16.728 14.8156 16.7405 14.8531 16.7405 14.8922C16.7405 14.9937 16.6577 15.0765 16.5562 15.0765C16.5562 15.0781 16.5515 15.0781 16.5484 15.0781ZM11.1562 14.0094L16.2843 14.6734L14.2624 8.33747L11.1562 14.0094Z" fill="#F79329"/>
<path d="M6.27961 5.45469C6.27961 5.68095 6.18973 5.89795 6.02974 6.05794C5.86975 6.21793 5.65275 6.30781 5.42649 6.30781C4.95618 6.30781 4.57336 5.925 4.57336 5.45469C4.57336 4.98281 4.95461 4.60156 5.42649 4.60156C5.89836 4.60156 6.27961 4.98281 6.27961 5.45469Z" fill="#F79329"/>
<path d="M5.42654 6.49062C5.1515 6.49021 4.88785 6.38077 4.69337 6.18629C4.49889 5.99181 4.38945 5.72816 4.38904 5.45312C4.38945 5.17808 4.49889 4.91443 4.69337 4.71995C4.88785 4.52547 5.1515 4.41603 5.42654 4.41562C5.70157 4.41603 5.96523 4.52547 6.1597 4.71995C6.35418 4.91443 6.46362 5.17808 6.46404 5.45312C6.46362 5.72816 6.35418 5.99181 6.1597 6.18629C5.96523 6.38077 5.70157 6.49021 5.42654 6.49062ZM5.42654 4.78593C5.05779 4.78593 4.75779 5.08593 4.75779 5.45468C4.75779 5.82343 5.05779 6.12343 5.42654 6.12343C5.79529 6.12343 6.09685 5.82343 6.09685 5.45468C6.09685 5.08593 5.79529 4.78593 5.42654 4.78593Z" fill="#F79329"/>
<path d="M14.622 4.60155C15.0923 4.62968 15.4517 5.03436 15.4235 5.50467C15.397 5.97499 14.9907 6.3328 14.522 6.30624C14.4101 6.29982 14.3006 6.27139 14.1997 6.22258C14.0988 6.17377 14.0086 6.10553 13.9341 6.02178C13.8596 5.93803 13.8024 5.84042 13.7658 5.73452C13.7291 5.62863 13.7137 5.51654 13.7204 5.40468C13.7485 4.9328 14.1517 4.57343 14.622 4.60155Z" fill="#F79329"/>
<path d="M14.5719 6.49061L14.511 6.48905C14.2344 6.47343 13.9798 6.34999 13.7969 6.14374C13.7062 6.0421 13.6364 5.92351 13.5916 5.7948C13.5468 5.66608 13.5279 5.52978 13.536 5.39374C13.5518 5.12963 13.6678 4.88152 13.8603 4.70003C14.0528 4.51855 14.3074 4.41738 14.5719 4.41718L14.6329 4.41874C15.2048 4.45311 15.6423 4.94686 15.6079 5.51718C15.5916 5.78084 15.4754 6.02838 15.2829 6.20927C15.0904 6.39017 14.8361 6.49079 14.5719 6.49061ZM14.6079 4.78436C14.2173 4.78436 13.9251 5.06093 13.9048 5.41405C13.8938 5.59218 13.9532 5.76405 14.0719 5.89843C14.1907 6.0328 14.3532 6.11093 14.5329 6.12186L14.5719 6.12343C14.9251 6.12343 15.2188 5.84686 15.2391 5.49374C15.261 5.12499 14.9782 4.8078 14.6094 4.78436H14.6079Z" fill="#F79329"/>
<path d="M5.69216 7.87186L3.45154 14.8937L9.13279 14.1578L5.69216 7.87186Z" fill="#F79329"/>
<path d="M3.45157 15.0781C3.39844 15.0781 3.34532 15.0547 3.30938 15.0125C3.26875 14.9641 3.25625 14.8984 3.275 14.8391L5.51563 7.81719C5.5375 7.74688 5.6 7.69688 5.67344 7.69063C5.75313 7.68281 5.81719 7.72031 5.85313 7.78594L9.29375 14.0719C9.32188 14.125 9.32344 14.1891 9.29531 14.2438C9.26875 14.2984 9.21563 14.3344 9.15469 14.3438L3.47344 15.0797C3.46719 15.0781 3.45938 15.0781 3.45157 15.0781ZM5.7375 8.3375L3.71407 14.675L8.84219 14.0109L5.7375 8.3375Z" fill="#F79329"/>
<path d="M11.2766 4.49376C11.2766 5.19844 10.7047 5.77032 10 5.77032C9.29536 5.77032 8.72192 5.19844 8.72192 4.49376C8.72192 3.78751 9.2938 3.21719 10 3.21719C10.7063 3.21719 11.2766 3.78751 11.2766 4.49376Z" fill="#FCC21B"/>
<path d="M2.10151 5.45471C2.10151 6.01408 1.64839 6.46721 1.08745 6.46721C0.528076 6.46721 0.0749512 6.01408 0.0749512 5.45471C0.0749512 4.89377 0.528076 4.44064 1.08745 4.44064C1.64839 4.44064 2.10151 4.89377 2.10151 5.45471Z" fill="#FCC21B"/>
<path d="M17.8969 5.45471C17.8969 6.01408 18.35 6.46721 18.9109 6.46721C19.4703 6.46721 19.925 6.01408 19.925 5.45471C19.925 5.18576 19.8181 4.92783 19.628 4.73766C19.4378 4.54748 19.1799 4.44064 18.9109 4.44064C18.642 4.44064 18.384 4.54748 18.1939 4.73766C18.0037 4.92783 17.8969 5.18576 17.8969 5.45471Z" fill="#FCC21B"/>
<path d="M11.2766 4.49376C11.2766 5.19844 10.7047 5.77032 10 5.77032C9.29536 5.77032 8.72192 5.19844 8.72192 4.49376C8.72192 3.78751 9.2938 3.21719 10 3.21719C10.7063 3.21719 11.2766 3.78751 11.2766 4.49376Z" fill="#FCC21B"/>
<path d="M2.10151 5.45471C2.10151 6.01408 1.64839 6.46721 1.08745 6.46721C0.528076 6.46721 0.0749512 6.01408 0.0749512 5.45471C0.0749512 4.89377 0.528076 4.44064 1.08745 4.44064C1.64839 4.44064 2.10151 4.89377 2.10151 5.45471Z" fill="#FCC21B"/>
<path d="M17.8969 5.45471C17.8969 6.01408 18.35 6.46721 18.9109 6.46721C19.4703 6.46721 19.925 6.01408 19.925 5.45471C19.925 5.18576 19.8181 4.92783 19.628 4.73766C19.4378 4.54748 19.1799 4.44064 18.9109 4.44064C18.642 4.44064 18.384 4.54748 18.1939 4.73766C18.0037 4.92783 17.8969 5.18576 17.8969 5.45471Z" fill="#FCC21B"/>
<path d="M18.672 8.34844C18.6387 8.33364 18.6019 8.32901 18.566 8.33512C18.5301 8.34124 18.4969 8.35783 18.4704 8.38281L13.6329 12.9234L10.1814 7.76875C10.147 7.71719 10.0907 7.6875 10.0282 7.6875C9.9673 7.6875 9.90948 7.71719 9.87511 7.76719L6.40792 12.9234L1.57198 8.38125C1.54553 8.35627 1.51227 8.33968 1.4764 8.33356C1.44054 8.32744 1.40366 8.33208 1.37042 8.34687C1.30323 8.37656 1.25948 8.44531 1.26261 8.51875L1.46105 15.9437C1.46105 17.5578 5.22042 18.8234 10.0204 18.8234C14.8204 18.8234 18.5798 17.5578 18.5798 15.9484L18.7782 8.51875C18.7814 8.44687 18.7392 8.37812 18.672 8.34844Z" fill="#FCC21B"/>
<path d="M18.736 12.1969L18.7376 12.1984L18.6454 15.1438H18.6438C17.9876 15.1234 17.4782 14.4484 17.5032 13.6344C17.5282 12.8188 18.0798 12.1766 18.736 12.1969Z" fill="#D7598B"/>
<path d="M1.30784 12.1969L1.30627 12.1984L1.3969 15.1438H1.40002C2.05471 15.1234 2.56565 14.4484 2.53909 13.6344C2.51409 12.8188 1.96252 12.1766 1.30784 12.1969Z" fill="#D7598B"/>
<path d="M11.3749 15.0859C11.3749 15.9578 10.7687 16.6656 10.0202 16.6656C9.27336 16.6656 8.66711 15.9578 8.66711 15.0859C8.66711 14.2125 9.27336 13.5063 10.0202 13.5063C10.7687 13.5047 11.3749 14.2125 11.3749 15.0859Z" fill="#D7598B"/>
<path d="M14.0469 15.9594C14.0266 16.3813 13.7157 16.7078 13.3532 16.6906C12.9922 16.6734 12.7157 16.3156 12.7375 15.8953C12.7594 15.4719 13.0704 15.1453 13.4313 15.1641C13.7922 15.1797 14.0672 15.5375 14.0469 15.9594Z" fill="#ED6C30"/>
<path d="M16.7547 15.497C16.7767 15.0755 16.5011 14.7186 16.1392 14.6997C15.7772 14.6808 15.466 15.0072 15.444 15.4286C15.422 15.85 15.6976 16.2069 16.0595 16.2258C16.4215 16.2447 16.7327 15.9184 16.7547 15.497Z" fill="#ED6C30"/>
<path d="M5.99535 15.9594C6.01567 16.3813 6.3266 16.7078 6.6891 16.6906C7.05004 16.6734 7.3266 16.3156 7.30473 15.8953C7.28442 15.4719 6.97348 15.1453 6.61254 15.1641C6.25004 15.1797 5.97348 15.5375 5.99535 15.9594Z" fill="#ED6C30"/>
<path d="M3.98196 16.224C4.34304 16.2051 4.61793 15.8483 4.59595 15.4268C4.57396 15.0054 4.26342 14.6791 3.90233 14.6979C3.54125 14.7168 3.26636 15.0737 3.28835 15.4951C3.31034 15.9165 3.62088 16.2428 3.98196 16.224Z" fill="#ED6C30"/>
<path d="M37.7021 13.6846C37.6247 14.7555 37.2282 15.5986 36.5127 16.2139C35.8018 16.8291 34.863 17.1367 33.6963 17.1367C32.4202 17.1367 31.4154 16.7083 30.6816 15.8516C29.9525 14.9902 29.5879 13.8099 29.5879 12.3105V11.7021C29.5879 10.7451 29.7565 9.90202 30.0938 9.17285C30.431 8.44368 30.9118 7.88542 31.5361 7.49805C32.165 7.10612 32.8942 6.91016 33.7236 6.91016C34.8721 6.91016 35.7972 7.21777 36.499 7.83301C37.2008 8.44824 37.6064 9.31185 37.7158 10.4238H35.665C35.6149 9.78125 35.4349 9.31641 35.125 9.0293C34.8197 8.73763 34.3525 8.5918 33.7236 8.5918C33.04 8.5918 32.5273 8.83789 32.1855 9.33008C31.8483 9.81771 31.6751 10.5765 31.666 11.6064V12.3584C31.666 13.4339 31.8278 14.2201 32.1514 14.7168C32.4795 15.2135 32.9945 15.4619 33.6963 15.4619C34.3298 15.4619 34.8014 15.3184 35.1113 15.0312C35.4258 14.7396 35.6058 14.2907 35.6514 13.6846H37.7021ZM38.6113 13.2334C38.6113 12.4997 38.7526 11.8457 39.0352 11.2715C39.3177 10.6973 39.7233 10.2529 40.252 9.93848C40.7852 9.62402 41.4027 9.4668 42.1045 9.4668C43.1025 9.4668 43.916 9.77214 44.5449 10.3828C45.1784 10.9935 45.5316 11.8229 45.6045 12.8711L45.6182 13.377C45.6182 14.5117 45.3014 15.4232 44.668 16.1113C44.0345 16.7949 43.1846 17.1367 42.1182 17.1367C41.0518 17.1367 40.1995 16.7949 39.5615 16.1113C38.9281 15.4277 38.6113 14.498 38.6113 13.3223V13.2334ZM40.5869 13.377C40.5869 14.0788 40.7191 14.6165 40.9834 14.9902C41.2477 15.3594 41.626 15.5439 42.1182 15.5439C42.5967 15.5439 42.9704 15.3617 43.2393 14.9971C43.5081 14.6279 43.6426 14.04 43.6426 13.2334C43.6426 12.5452 43.5081 12.012 43.2393 11.6338C42.9704 11.2555 42.5921 11.0664 42.1045 11.0664C41.6214 11.0664 41.2477 11.2555 40.9834 11.6338C40.7191 12.0075 40.5869 12.5885 40.5869 13.377ZM46.5273 13.2471C46.5273 12.0941 46.7848 11.1758 47.2998 10.4922C47.8193 9.80859 48.528 9.4668 49.4258 9.4668C50.1458 9.4668 50.7406 9.73568 51.21 10.2734V6.5H53.1924V17H51.4082L51.3125 16.2139C50.8203 16.8291 50.1868 17.1367 49.4121 17.1367C48.5417 17.1367 47.8421 16.7949 47.3135 16.1113C46.7894 15.4232 46.5273 14.4684 46.5273 13.2471ZM48.5029 13.3906C48.5029 14.0833 48.6237 14.6143 48.8652 14.9834C49.1068 15.3525 49.4577 15.5371 49.918 15.5371C50.5286 15.5371 50.9593 15.2796 51.21 14.7646V11.8457C50.9639 11.3307 50.5378 11.0732 49.9316 11.0732C48.9792 11.0732 48.5029 11.8457 48.5029 13.3906ZM58.1279 17.1367C57.0433 17.1367 56.1592 16.804 55.4756 16.1387C54.7965 15.4733 54.457 14.5869 54.457 13.4795V13.2881C54.457 12.5452 54.6006 11.8822 54.8877 11.2988C55.1748 10.7109 55.5804 10.2598 56.1045 9.94531C56.6331 9.6263 57.2347 9.4668 57.9092 9.4668C58.9209 9.4668 59.7161 9.78581 60.2949 10.4238C60.8783 11.0618 61.1699 11.9665 61.1699 13.1377V13.9443H56.46C56.5238 14.4274 56.7152 14.8148 57.0342 15.1064C57.3577 15.3981 57.7656 15.5439 58.2578 15.5439C59.0189 15.5439 59.6136 15.2682 60.042 14.7168L61.0127 15.8037C60.7165 16.223 60.3154 16.5511 59.8096 16.7881C59.3037 17.0205 58.7432 17.1367 58.1279 17.1367ZM57.9023 11.0664C57.5104 11.0664 57.1914 11.1986 56.9453 11.4629C56.7038 11.7272 56.5488 12.1055 56.4805 12.5977H59.2285V12.4404C59.2194 12.0029 59.1009 11.6657 58.873 11.4287C58.6452 11.1872 58.3216 11.0664 57.9023 11.0664ZM66.1123 13.3564H64.4785V17H62.4277V7.04688H66.126C67.3018 7.04688 68.2087 7.30892 68.8467 7.83301C69.4847 8.3571 69.8037 9.09766 69.8037 10.0547C69.8037 10.7337 69.6556 11.3011 69.3594 11.7568C69.0677 12.208 68.6234 12.568 68.0264 12.8369L70.1797 16.9043V17H67.9785L66.1123 13.3564ZM64.4785 11.6953H66.1328C66.6478 11.6953 67.0465 11.5654 67.3291 11.3057C67.6117 11.0413 67.7529 10.679 67.7529 10.2188C67.7529 9.74935 67.6185 9.38021 67.3496 9.11133C67.0853 8.84245 66.6774 8.70801 66.126 8.70801H64.4785V11.6953ZM70.9316 13.2334C70.9316 12.4997 71.0729 11.8457 71.3555 11.2715C71.638 10.6973 72.0436 10.2529 72.5723 9.93848C73.1055 9.62402 73.723 9.4668 74.4248 9.4668C75.4229 9.4668 76.2363 9.77214 76.8652 10.3828C77.4987 10.9935 77.8519 11.8229 77.9248 12.8711L77.9385 13.377C77.9385 14.5117 77.6217 15.4232 76.9883 16.1113C76.3548 16.7949 75.5049 17.1367 74.4385 17.1367C73.3721 17.1367 72.5199 16.7949 71.8818 16.1113C71.2484 15.4277 70.9316 14.498 70.9316 13.3223V13.2334ZM72.9072 13.377C72.9072 14.0788 73.0394 14.6165 73.3037 14.9902C73.568 15.3594 73.9463 15.5439 74.4385 15.5439C74.917 15.5439 75.2907 15.3617 75.5596 14.9971C75.8285 14.6279 75.9629 14.04 75.9629 13.2334C75.9629 12.5452 75.8285 12.012 75.5596 11.6338C75.2907 11.2555 74.9124 11.0664 74.4248 11.0664C73.9417 11.0664 73.568 11.2555 73.3037 11.6338C73.0394 12.0075 72.9072 12.5885 72.9072 13.377ZM81.8076 14.2041L83.1748 9.60352H85.2939L82.3203 18.1484L82.1562 18.5381C81.7142 19.5042 80.985 19.9873 79.9688 19.9873C79.6816 19.9873 79.39 19.944 79.0938 19.8574V18.3604L79.3945 18.3672C79.7682 18.3672 80.0462 18.3102 80.2285 18.1963C80.4154 18.0824 80.5612 17.8932 80.666 17.6289L80.8984 17.0205L78.3076 9.60352H80.4336L81.8076 14.2041ZM90.25 17C90.1589 16.8223 90.0928 16.6012 90.0518 16.3369C89.5732 16.8701 88.9512 17.1367 88.1855 17.1367C87.4609 17.1367 86.8594 16.9271 86.3809 16.5078C85.9069 16.0885 85.6699 15.5599 85.6699 14.9219C85.6699 14.138 85.9593 13.5365 86.5381 13.1172C87.1214 12.6979 87.9622 12.486 89.0605 12.4814H89.9697V12.0576C89.9697 11.7158 89.8809 11.4424 89.7031 11.2373C89.5299 11.0322 89.2542 10.9297 88.876 10.9297C88.5433 10.9297 88.2812 11.0094 88.0898 11.1689C87.903 11.3285 87.8096 11.5472 87.8096 11.8252H85.834C85.834 11.3968 85.9661 11.0003 86.2305 10.6357C86.4948 10.2712 86.8685 9.98633 87.3516 9.78125C87.8346 9.57161 88.377 9.4668 88.9785 9.4668C89.89 9.4668 90.6123 9.69694 91.1455 10.1572C91.6833 10.613 91.9521 11.2555 91.9521 12.085V15.291C91.9567 15.9928 92.0547 16.5238 92.2461 16.8838V17H90.25ZM88.6162 15.626C88.9079 15.626 89.1768 15.5622 89.4229 15.4346C89.6689 15.3024 89.8512 15.127 89.9697 14.9082V13.6367H89.2314C88.2425 13.6367 87.7161 13.9785 87.6523 14.6621L87.6455 14.7783C87.6455 15.0244 87.7321 15.2272 87.9053 15.3867C88.0785 15.5462 88.3154 15.626 88.6162 15.626ZM95.5547 17H93.5723V6.5H95.5547V17Z" fill="#FCA311"/>
</svg>
