<svg width="20" height="20" viewBox="0 0 20 20" fill="none" xmlns="http://www.w3.org/2000/svg">
<path d="M14.3063 7.87186L16.5484 14.8937L10.8672 14.1578L14.3063 7.87186Z" fill="#F79329"/>
<path d="M16.5484 15.0781C16.5405 15.0781 16.5327 15.0781 16.5249 15.0765L10.8421 14.3406C10.7812 14.3328 10.7296 14.2953 10.7015 14.2406C10.6734 14.1859 10.6749 14.1219 10.703 14.0687L14.1437 7.78279C14.1796 7.71872 14.2515 7.68122 14.3234 7.68747C14.3968 7.69372 14.4593 7.74372 14.4812 7.81404L16.7062 14.7859C16.728 14.8156 16.7405 14.8531 16.7405 14.8922C16.7405 14.9937 16.6577 15.0765 16.5562 15.0765C16.5562 15.0781 16.5515 15.0781 16.5484 15.0781ZM11.1562 14.0094L16.2843 14.6734L14.2624 8.33747L11.1562 14.0094Z" fill="#F79329"/>
<path d="M6.27961 5.45469C6.27961 5.68095 6.18973 5.89795 6.02974 6.05794C5.86975 6.21793 5.65275 6.30781 5.42649 6.30781C4.95618 6.30781 4.57336 5.925 4.57336 5.45469C4.57336 4.98281 4.95461 4.60156 5.42649 4.60156C5.89836 4.60156 6.27961 4.98281 6.27961 5.45469Z" fill="#F79329"/>
<path d="M5.42654 6.49062C5.1515 6.49021 4.88785 6.38077 4.69337 6.18629C4.49889 5.99181 4.38945 5.72816 4.38904 5.45312C4.38945 5.17808 4.49889 4.91443 4.69337 4.71995C4.88785 4.52547 5.1515 4.41603 5.42654 4.41562C5.70157 4.41603 5.96523 4.52547 6.1597 4.71995C6.35418 4.91443 6.46362 5.17808 6.46404 5.45312C6.46362 5.72816 6.35418 5.99181 6.1597 6.18629C5.96523 6.38077 5.70157 6.49021 5.42654 6.49062ZM5.42654 4.78593C5.05779 4.78593 4.75779 5.08593 4.75779 5.45468C4.75779 5.82343 5.05779 6.12343 5.42654 6.12343C5.79529 6.12343 6.09685 5.82343 6.09685 5.45468C6.09685 5.08593 5.79529 4.78593 5.42654 4.78593Z" fill="#F79329"/>
<path d="M14.622 4.60155C15.0923 4.62968 15.4517 5.03436 15.4235 5.50467C15.397 5.97499 14.9907 6.3328 14.522 6.30624C14.4101 6.29982 14.3006 6.27139 14.1997 6.22258C14.0988 6.17377 14.0086 6.10553 13.9341 6.02178C13.8596 5.93803 13.8024 5.84042 13.7658 5.73452C13.7291 5.62863 13.7137 5.51654 13.7204 5.40468C13.7485 4.9328 14.1517 4.57343 14.622 4.60155Z" fill="#F79329"/>
<path d="M14.5719 6.49061L14.511 6.48905C14.2344 6.47343 13.9798 6.34999 13.7969 6.14374C13.7062 6.0421 13.6364 5.92351 13.5916 5.7948C13.5468 5.66608 13.5279 5.52978 13.536 5.39374C13.5518 5.12963 13.6678 4.88152 13.8603 4.70003C14.0528 4.51855 14.3074 4.41738 14.5719 4.41718L14.6329 4.41874C15.2048 4.45311 15.6423 4.94686 15.6079 5.51718C15.5916 5.78084 15.4754 6.02838 15.2829 6.20927C15.0904 6.39017 14.8361 6.49079 14.5719 6.49061ZM14.6079 4.78436C14.2173 4.78436 13.9251 5.06093 13.9048 5.41405C13.8938 5.59218 13.9532 5.76405 14.0719 5.89843C14.1907 6.0328 14.3532 6.11093 14.5329 6.12186L14.5719 6.12343C14.9251 6.12343 15.2188 5.84686 15.2391 5.49374C15.261 5.12499 14.9782 4.8078 14.6094 4.78436H14.6079Z" fill="#F79329"/>
<path d="M5.69216 7.87186L3.45154 14.8937L9.13279 14.1578L5.69216 7.87186Z" fill="#F79329"/>
<path d="M3.45157 15.0781C3.39844 15.0781 3.34532 15.0547 3.30938 15.0125C3.26875 14.9641 3.25625 14.8984 3.275 14.8391L5.51563 7.81719C5.5375 7.74688 5.6 7.69688 5.67344 7.69063C5.75313 7.68281 5.81719 7.72031 5.85313 7.78594L9.29375 14.0719C9.32188 14.125 9.32344 14.1891 9.29531 14.2438C9.26875 14.2984 9.21563 14.3344 9.15469 14.3438L3.47344 15.0797C3.46719 15.0781 3.45938 15.0781 3.45157 15.0781ZM5.7375 8.3375L3.71407 14.675L8.84219 14.0109L5.7375 8.3375Z" fill="#F79329"/>
<path d="M11.2766 4.49376C11.2766 5.19844 10.7047 5.77032 10 5.77032C9.29536 5.77032 8.72192 5.19844 8.72192 4.49376C8.72192 3.78751 9.2938 3.21719 10 3.21719C10.7063 3.21719 11.2766 3.78751 11.2766 4.49376Z" fill="#FCC21B"/>
<path d="M2.10151 5.45471C2.10151 6.01408 1.64839 6.46721 1.08745 6.46721C0.528076 6.46721 0.0749512 6.01408 0.0749512 5.45471C0.0749512 4.89377 0.528076 4.44064 1.08745 4.44064C1.64839 4.44064 2.10151 4.89377 2.10151 5.45471Z" fill="#FCC21B"/>
<path d="M17.8969 5.45471C17.8969 6.01408 18.35 6.46721 18.9109 6.46721C19.4703 6.46721 19.925 6.01408 19.925 5.45471C19.925 5.18576 19.8181 4.92783 19.628 4.73766C19.4378 4.54748 19.1799 4.44064 18.9109 4.44064C18.642 4.44064 18.384 4.54748 18.1939 4.73766C18.0037 4.92783 17.8969 5.18576 17.8969 5.45471Z" fill="#FCC21B"/>
<path d="M11.2766 4.49376C11.2766 5.19844 10.7047 5.77032 10 5.77032C9.29536 5.77032 8.72192 5.19844 8.72192 4.49376C8.72192 3.78751 9.2938 3.21719 10 3.21719C10.7063 3.21719 11.2766 3.78751 11.2766 4.49376Z" fill="#FCC21B"/>
<path d="M2.10151 5.45471C2.10151 6.01408 1.64839 6.46721 1.08745 6.46721C0.528076 6.46721 0.0749512 6.01408 0.0749512 5.45471C0.0749512 4.89377 0.528076 4.44064 1.08745 4.44064C1.64839 4.44064 2.10151 4.89377 2.10151 5.45471Z" fill="#FCC21B"/>
<path d="M17.8969 5.45471C17.8969 6.01408 18.35 6.46721 18.9109 6.46721C19.4703 6.46721 19.925 6.01408 19.925 5.45471C19.925 5.18576 19.8181 4.92783 19.628 4.73766C19.4378 4.54748 19.1799 4.44064 18.9109 4.44064C18.642 4.44064 18.384 4.54748 18.1939 4.73766C18.0037 4.92783 17.8969 5.18576 17.8969 5.45471Z" fill="#FCC21B"/>
<path d="M18.672 8.34844C18.6387 8.33364 18.6019 8.32901 18.566 8.33512C18.5301 8.34124 18.4969 8.35783 18.4704 8.38281L13.6329 12.9234L10.1814 7.76875C10.147 7.71719 10.0907 7.6875 10.0282 7.6875C9.9673 7.6875 9.90948 7.71719 9.87511 7.76719L6.40792 12.9234L1.57198 8.38125C1.54553 8.35627 1.51227 8.33968 1.4764 8.33356C1.44054 8.32744 1.40366 8.33208 1.37042 8.34687C1.30323 8.37656 1.25948 8.44531 1.26261 8.51875L1.46105 15.9437C1.46105 17.5578 5.22042 18.8234 10.0204 18.8234C14.8204 18.8234 18.5798 17.5578 18.5798 15.9484L18.7782 8.51875C18.7814 8.44687 18.7392 8.37812 18.672 8.34844Z" fill="#FCC21B"/>
<path d="M18.736 12.1969L18.7376 12.1984L18.6454 15.1438H18.6438C17.9876 15.1234 17.4782 14.4484 17.5032 13.6344C17.5282 12.8188 18.0798 12.1766 18.736 12.1969Z" fill="#E31B23"/>
<path d="M1.30784 12.1969L1.30627 12.1984L1.3969 15.1438H1.40002C2.05471 15.1234 2.56565 14.4484 2.53909 13.6344C2.51409 12.8188 1.96252 12.1766 1.30784 12.1969Z" fill="#E31B23"/>
<path d="M11.3749 15.0859C11.3749 15.9578 10.7687 16.6656 10.0202 16.6656C9.27336 16.6656 8.66711 15.9578 8.66711 15.0859C8.66711 14.2125 9.27336 13.5063 10.0202 13.5063C10.7687 13.5047 11.3749 14.2125 11.3749 15.0859Z" fill="#E31B23"/>
<path d="M14.0469 15.9594C14.0266 16.3813 13.7157 16.7078 13.3532 16.6906C12.9922 16.6734 12.7157 16.3156 12.7375 15.8953C12.7594 15.4719 13.0704 15.1453 13.4313 15.1641C13.7922 15.1797 14.0672 15.5375 14.0469 15.9594Z" fill="#ED6C30"/>
<path d="M16.7547 15.497C16.7767 15.0755 16.5011 14.7186 16.1392 14.6997C15.7772 14.6808 15.466 15.0072 15.444 15.4286C15.422 15.85 15.6976 16.2069 16.0595 16.2258C16.4215 16.2447 16.7327 15.9184 16.7547 15.497Z" fill="#ED6C30"/>
<path d="M5.99535 15.9594C6.01567 16.3813 6.3266 16.7078 6.6891 16.6906C7.05004 16.6734 7.3266 16.3156 7.30473 15.8953C7.28442 15.4719 6.97348 15.1453 6.61254 15.1641C6.25004 15.1797 5.97348 15.5375 5.99535 15.9594Z" fill="#ED6C30"/>
<path d="M3.98196 16.224C4.34304 16.2051 4.61793 15.8483 4.59595 15.4268C4.57396 15.0054 4.26342 14.6791 3.90233 14.6979C3.54125 14.7168 3.26636 15.0737 3.28835 15.4951C3.31034 15.9165 3.62088 16.2428 3.98196 16.224Z" fill="#ED6C30"/>
</svg>
